<svg width="45" height="22" viewBox="0 0 45 22" fill="none" xmlns="http://www.w3.org/2000/svg">
<path d="M1 8.41193V19.6342C1 20.1864 1.44772 20.6342 2 20.6342H8M1 8.41193L7.3119 1.39871C7.68875 0.979991 8.33692 0.955034 8.74485 1.34354L11.5 3.96749M1 8.41193H8.25M30 20.6342H22.75M30 20.6342H37H43C43.5523 20.6342 44 20.1864 44 19.6342V8.41193M30 20.6342L29.875 8.41193M11.5 3.96749H18.75M11.5 3.96749L8.25 8.41193M26 3.96749H18.75M26 3.96749L22.75 8.41193M26 3.96749H33.5M18.75 3.96749L15.5 8.41193M15.5 8.41193H8.25M15.5 8.41193V20.6342M15.5 8.41193H22.75M8.25 8.41193L8 20.6342M8 20.6342H15.5M15.5 20.6342H22.75M22.75 8.41193V20.6342M22.75 8.41193H29.875M33.5 3.96749H39.5546C39.8381 3.96749 40.1083 4.08781 40.2979 4.29852L44 8.41193M33.5 3.96749L29.875 8.41193M44 8.41193H29.875" stroke="black" stroke-opacity="0.7" stroke-width="2"/>
</svg>
