<svg width="150" height="50" viewBox="0 0 150 50" fill="none" xmlns="http://www.w3.org/2000/svg">
<path d="M42.9802 49.9153C40.5025 49.9153 38.6404 49.3151 37.3936 48.1148C36.1628 46.8989 35.5472 45.075 35.5472 42.6432H38.6956C38.6956 44.1085 39.0507 45.2075 39.7608 45.9401C40.471 46.6728 41.5441 47.0392 42.9802 47.0392C44.4163 47.0392 45.4894 46.6884 46.1995 45.9869C46.9097 45.2854 47.2648 44.2332 47.2648 42.8302C47.2648 42.004 47.0675 41.3493 46.673 40.866C46.2785 40.3828 45.7576 39.9931 45.1106 39.6969C44.4794 39.4007 43.7771 39.1435 43.0039 38.9253C42.199 38.6915 41.3705 38.4342 40.5183 38.1536C39.6819 37.8574 38.9086 37.4755 38.1985 37.0078C37.5041 36.5246 36.936 35.8777 36.4942 35.0671C36.0681 34.2408 35.855 33.1731 35.855 31.8636C35.855 29.5253 36.431 27.7793 37.583 26.6258C38.7351 25.4566 40.471 24.872 42.7908 24.872C45.1106 24.872 46.8465 25.4333 47.9986 26.5557C49.1506 27.678 49.7266 29.3772 49.7266 31.6531H46.5783C46.5783 30.3437 46.2627 29.3694 45.6314 28.7302C45.0002 28.0755 44.0533 27.7482 42.7908 27.7482C41.5283 27.7482 40.5815 28.0834 39.9502 28.7536C39.3189 29.4239 39.0033 30.4294 39.0033 31.77C39.0033 32.6898 39.2242 33.4146 39.6661 33.9447C40.108 34.4747 40.6919 34.8878 41.4179 35.184C42.1438 35.4645 42.9171 35.714 43.7376 35.9322C44.5267 36.1349 45.3158 36.3765 46.1048 36.6571C46.8939 36.9221 47.612 37.2962 48.259 37.7795C48.906 38.2471 49.4268 38.8863 49.8213 39.6969C50.2158 40.4919 50.4131 41.5364 50.4131 42.8302C50.4131 45.1997 49.7976 46.9768 48.5667 48.1616C47.3358 49.3307 45.4736 49.9153 42.9802 49.9153ZM65.35 49.5645V25.2929H68.735V49.5645H65.35ZM57.5856 25.2929V43.0874C57.5856 44.2566 57.9249 45.1685 58.6035 45.8232C59.2821 46.4624 60.2448 46.782 61.4914 46.782C62.7855 46.782 63.7481 46.4702 64.3794 45.8466C65.0264 45.2075 65.35 44.2566 65.35 42.9939L65.6814 46.1506C65.1921 47.4133 64.4898 48.3564 63.5746 48.98C62.675 49.6035 61.5546 49.9153 60.2132 49.9153C58.3037 49.9153 56.8203 49.3229 55.7629 48.1381C54.7213 46.9379 54.2006 45.2543 54.2006 43.0874V25.2929H57.5856ZM84.8317 49.5645V15.5656H88.2407V49.5645H84.8317ZM79.6003 49.9854C77.6592 49.9854 76.1521 49.3463 75.079 48.068C74.0059 46.7897 73.4694 44.997 73.4694 42.6899V32.4248C73.4694 30.0241 74.0059 28.1691 75.079 26.8597C76.1521 25.5346 77.6592 24.872 79.6003 24.872C80.8155 24.872 81.9202 25.2462 82.9144 25.9944C83.9085 26.7427 84.7134 27.7949 85.3289 29.1511L84.8317 32.4715C84.8317 31.4895 84.674 30.6555 84.3584 29.9696C84.0584 29.2681 83.6087 28.7381 83.0091 28.3795C82.4251 28.0054 81.7071 27.8183 80.8549 27.8183C79.6082 27.8183 78.6298 28.2314 77.9196 29.0577C77.2253 29.8682 76.8781 31.014 76.8781 32.4949V42.6899C76.8781 44.0618 77.2253 45.1295 77.9196 45.8934C78.6298 46.6572 79.6082 47.0392 80.8549 47.0392C81.7071 47.0392 82.4251 46.8599 83.0091 46.5014C83.6087 46.1428 84.0584 45.6284 84.3584 44.9581C84.674 44.2722 84.8317 43.4537 84.8317 42.5029L85.1632 45.7531C84.7055 47.0937 83.9875 48.1381 83.0091 48.8864C82.0306 49.6191 80.8943 49.9854 79.6003 49.9854ZM104.834 49.5645V31.7935C104.834 30.484 104.464 29.4707 103.722 28.7536C102.996 28.0366 101.962 27.678 100.621 27.678C99.4374 27.678 98.5141 28.0366 97.8509 28.7536C97.2046 29.4707 96.8809 30.484 96.8809 31.7935H93.5899C93.5899 29.5955 94.2134 27.8962 95.4603 26.6959C96.7072 25.48 98.4665 24.872 100.739 24.872C103.043 24.872 104.826 25.48 106.089 26.6959C107.367 27.8962 108.006 29.5955 108.006 31.7935V49.5645H104.834ZM99.5317 49.9153C97.3853 49.9153 95.776 49.3541 94.7028 48.2317C93.6296 47.0937 93.0935 45.3867 93.0935 43.1108C93.0935 40.3828 93.7248 38.3485 94.9868 37.0078C96.2495 35.6516 98.1428 34.9735 100.668 34.9735H105.048L105.379 37.4054H100.692C99.2081 37.4054 98.0882 37.8808 97.3307 38.8317C96.589 39.7827 96.2178 41.209 96.2178 43.1108C96.2178 44.5605 96.5573 45.644 97.2354 46.3611C97.9144 47.0781 98.9321 47.4367 100.289 47.4367C101.804 47.4367 102.941 47.0469 103.698 46.2675C104.456 45.4725 104.834 44.28 104.834 42.6899L105.332 44.7009C105.316 45.8544 105.087 46.8209 104.645 47.6003C104.219 48.3798 103.579 48.9644 102.727 49.3541C101.876 49.7282 100.81 49.9153 99.5317 49.9153ZM124.127 49.5645V15.5656H127.535V49.5645H124.127ZM118.895 49.9854C116.954 49.9854 115.447 49.3463 114.374 48.068C113.301 46.7897 112.765 44.997 112.765 42.6899V32.4248C112.765 30.0241 113.301 28.1691 114.374 26.8597C115.447 25.5346 116.954 24.872 118.895 24.872C120.11 24.872 121.215 25.2462 122.209 25.9944C123.204 26.7427 124.009 27.7949 124.624 29.1511L124.127 32.4715C124.127 31.4895 123.969 30.6555 123.653 29.9696C123.354 29.2681 122.904 28.7381 122.304 28.3795C121.72 28.0054 121.002 27.8183 120.15 27.8183C118.903 27.8183 117.925 28.2314 117.214 29.0577C116.52 29.8682 116.173 31.014 116.173 32.4949V42.6899C116.173 44.0618 116.52 45.1295 117.214 45.8934C117.925 46.6572 118.903 47.0392 120.15 47.0392C121.002 47.0392 121.72 46.8599 122.304 46.5014C122.904 46.1428 123.354 45.6284 123.653 44.9581C123.969 44.2722 124.127 43.4537 124.127 42.5029L124.459 45.7531C124.001 47.0937 123.282 48.1381 122.304 48.8864C121.325 49.6191 120.19 49.9854 118.895 49.9854ZM144.13 49.5645V31.7935C144.13 30.484 143.758 29.4707 143.017 28.7536C142.291 28.0366 141.257 27.678 139.916 27.678C138.732 27.678 137.809 28.0366 137.146 28.7536C136.499 29.4707 136.175 30.484 136.175 31.7935H132.885C132.885 29.5955 133.509 27.8962 134.756 26.6959C136.002 25.48 137.762 24.872 140.034 24.872C142.339 24.872 144.122 25.48 145.384 26.6959C146.662 27.8962 147.302 29.5955 147.302 31.7935V49.5645H144.13ZM138.827 49.9153C136.681 49.9153 135.071 49.3541 133.998 48.2317C132.925 47.0937 132.388 45.3867 132.388 43.1108C132.388 40.3828 133.019 38.3485 134.282 37.0078C135.544 35.6516 137.438 34.9735 139.963 34.9735H144.342L144.674 37.4054H139.987C138.503 37.4054 137.383 37.8808 136.625 38.8317C135.884 39.7827 135.513 41.209 135.513 43.1108C135.513 44.5605 135.852 45.644 136.531 46.3611C137.209 47.0781 138.227 47.4367 139.585 47.4367C141.1 47.4367 142.235 47.0469 142.993 46.2675C143.75 45.4725 144.13 44.28 144.13 42.6899L144.626 44.7009C144.611 45.8544 144.382 46.8209 143.94 47.6003C143.514 48.3798 142.875 48.9644 142.023 49.3541C141.17 49.7282 140.105 49.9153 138.827 49.9153Z" fill="black"/>
<path fill-rule="evenodd" clip-rule="evenodd" d="M25.6301 0.776662L24.5653 0.0704956L23.4968 0.770935L0.877678 15.5981L0.0187988 16.161V17.1792V47.6483V49.5461H1.93994H22.3497C22.5766 49.5576 22.808 49.5635 23.0439 49.5635C23.2819 49.5635 23.5152 49.5576 23.7436 49.5461H24.3806V49.4972C25.6088 49.3701 26.6865 49.0604 27.6137 48.5681C28.8793 47.9045 29.8401 46.9476 30.4963 45.6975C31.1681 44.4321 31.504 42.8965 31.504 41.0909V23.6595C31.504 21.8538 31.1681 20.326 30.4963 19.0759C29.8401 17.8104 28.8793 16.8536 27.6137 16.2054C26.3639 15.5418 24.8406 15.21 23.0439 15.21C21.2629 15.21 19.7396 15.5418 18.4741 16.2054C17.2086 16.8536 16.2399 17.8104 15.5682 19.0759C14.912 20.326 14.5839 21.8538 14.5839 23.6595V41.0909C14.5839 42.8965 14.912 44.4321 15.5682 45.6975C15.5777 45.7153 15.5873 45.733 15.5969 45.7506H3.86107V18.1974L24.5528 4.63382L40.6061 15.2816H35.5757V19.077H46.9135H53.2209L47.9845 15.6038L25.6301 0.776662ZM23.801 45.7506H22.2939C21.2122 45.6315 20.3451 45.2434 19.6928 44.5864C18.8959 43.7839 18.4975 42.6727 18.4975 41.2529V23.5206C18.4975 22.0699 18.8959 20.951 19.6928 20.1639C20.4895 19.3769 21.6066 18.9833 23.0439 18.9833C24.4969 18.9833 25.614 19.3769 26.3951 20.1639C27.192 20.951 27.5904 22.0699 27.5904 23.5206V41.2529C27.5904 42.6727 27.192 43.7839 26.3951 44.5864C25.7555 45.2434 24.8908 45.6315 23.801 45.7506Z" fill="url(#paint0_linear_1004_375)"/>
<defs>
<linearGradient id="paint0_linear_1004_375" x1="26.6313" y1="49.5647" x2="31.4966" y2="0.570497" gradientUnits="userSpaceOnUse">
<stop stop-color="#EB8800"/>
<stop offset="0.996901" stop-color="#FFC801"/>
</linearGradient>
</defs>
</svg>
