<svg width="18" height="16" viewBox="0 0 18 16" fill="none" xmlns="http://www.w3.org/2000/svg">
<path fill-rule="evenodd" clip-rule="evenodd" d="M17.3571 1.65387H0.642857C0.472361 1.65387 0.308848 1.71465 0.188289 1.82285C0.0677295 1.93104 0 2.07778 0 2.23079V14.9231C0 15.0761 0.0677295 15.2229 0.188289 15.331C0.308848 15.4392 0.472361 15.5 0.642857 15.5H17.3571C17.5276 15.5 17.6912 15.4392 17.8117 15.331C17.9323 15.2229 18 15.0761 18 14.9231V2.23079C18 2.07778 17.9323 1.93104 17.8117 1.82285C17.6912 1.71465 17.5276 1.65387 17.3571 1.65387ZM1.28571 14.3462V2.80772H16.7143V14.3462H1.28571Z" fill="black"/>
<path fill-rule="evenodd" clip-rule="evenodd" d="M17.3571 1.65387H0.642857C0.472361 1.65387 0.308848 1.71465 0.188289 1.82285C0.0677295 1.93104 0 2.07778 0 2.23079V5.69233C0 5.84534 0.0677295 5.99208 0.188289 6.10028C0.308848 6.20847 0.472361 6.26925 0.642857 6.26925H17.3571C17.5276 6.26925 17.6912 6.20847 17.8117 6.10028C17.9323 5.99208 18 5.84534 18 5.69233V2.23079C18 2.07778 17.9323 1.93104 17.8117 1.82285C17.6912 1.71465 17.5276 1.65387 17.3571 1.65387ZM1.28571 5.11541V2.80772H16.7143V5.11541H1.28571Z" fill="black"/>
<path d="M3.21427 2.80769H4.49998C4.67048 2.80769 4.83399 2.74691 4.95455 2.63872C5.07511 2.53052 5.14284 2.38378 5.14284 2.23077V1.07692C5.14284 0.923914 5.07511 0.777171 4.95455 0.668977C4.83399 0.560783 4.67048 0.5 4.49998 0.5H3.21427C3.04377 0.5 2.88026 0.560783 2.7597 0.668977C2.63914 0.777171 2.57141 0.923914 2.57141 1.07692V2.23077C2.57141 2.38378 2.63914 2.53052 2.7597 2.63872C2.88026 2.74691 3.04377 2.80769 3.21427 2.80769ZM13.5 2.80769H14.7857C14.9562 2.80769 15.1197 2.74691 15.2403 2.63872C15.3608 2.53052 15.4286 2.38378 15.4286 2.23077V1.07692C15.4286 0.923914 15.3608 0.777171 15.2403 0.668977C15.1197 0.560783 14.9562 0.5 14.7857 0.5H13.5C13.3295 0.5 13.166 0.560783 13.0454 0.668977C12.9249 0.777171 12.8571 0.923914 12.8571 1.07692V2.23077C12.8571 2.38378 12.9249 2.53052 13.0454 2.63872C13.166 2.74691 13.3295 2.80769 13.5 2.80769ZM3.85713 9.73077C3.51613 9.73077 3.18911 9.6092 2.94799 9.39282C2.70687 9.17643 2.57141 8.88294 2.57141 8.57692C2.57141 8.27091 2.70687 7.97742 2.94799 7.76103C3.18911 7.54464 3.51613 7.42308 3.85713 7.42308C4.19812 7.42308 4.52514 7.54464 4.76626 7.76103C5.00738 7.97742 5.14284 8.27091 5.14284 8.57692C5.14284 8.88294 5.00738 9.17643 4.76626 9.39282C4.52514 9.6092 4.19812 9.73077 3.85713 9.73077Z" fill="black"/>
</svg>
