 <svg width="21" height="16" viewBox="0 0 21 16" fill="none" xmlns="http://www.w3.org/2000/svg">
        <path
            d="M8 8C8.99456 8 9.94839 7.57857 10.6517 6.82843C11.3549 6.07828 11.75 5.06087 11.75 4C11.75 2.93913 11.3549 1.92172 10.6517 1.17157C9.94839 0.421427 8.99456 0 8 0C7.00544 0 6.05161 0.421427 5.34835 1.17157C4.64509 1.92172 4.25 2.93913 4.25 4C4.25 5.06087 4.64509 6.07828 5.34835 6.82843C6.05161 7.57857 7.00544 8 8 8ZM10.5 4C10.5 4.70724 10.2366 5.38552 9.76777 5.88562C9.29893 6.38572 8.66304 6.66667 8 6.66667C7.33696 6.66667 6.70107 6.38572 6.23223 5.88562C5.76339 5.38552 5.5 4.70724 5.5 4C5.5 3.29276 5.76339 2.61448 6.23223 2.11438C6.70107 1.61428 7.33696 1.33333 8 1.33333C8.66304 1.33333 9.29893 1.61428 9.76777 2.11438C10.2366 2.61448 10.5 3.29276 10.5 4ZM15.5 14.6667C15.5 16 14.25 16 14.25 16H1.75C1.75 16 0.5 16 0.5 14.6667C0.5 13.3333 1.75 9.33333 8 9.33333C14.25 9.33333 15.5 13.3333 15.5 14.6667ZM14.25 14.6613C14.2487 14.3333 14.0575 13.3467 13.21 12.4427C12.395 11.5733 10.8612 10.6667 8 10.6667C5.13875 10.6667 3.605 11.5733 2.79 12.4427C1.9425 13.3467 1.7525 14.3333 1.75 14.6613H14.25Z"
            fill="black" />
        <path fill-rule="evenodd" clip-rule="evenodd"
            d="M17.375 4C17.5408 4 17.6997 4.07024 17.8169 4.19526C17.9342 4.32029 18 4.48986 18 4.66667V6.66667H19.875C20.0408 6.66667 20.1997 6.7369 20.3169 6.86193C20.4342 6.98695 20.5 7.15652 20.5 7.33333C20.5 7.51014 20.4342 7.67971 20.3169 7.80474C20.1997 7.92976 20.0408 8 19.875 8H18V10C18 10.1768 17.9342 10.3464 17.8169 10.4714C17.6997 10.5964 17.5408 10.6667 17.375 10.6667C17.2092 10.6667 17.0503 10.5964 16.9331 10.4714C16.8158 10.3464 16.75 10.1768 16.75 10V8H14.875C14.7092 8 14.5503 7.92976 14.4331 7.80474C14.3158 7.67971 14.25 7.51014 14.25 7.33333C14.25 7.15652 14.3158 6.98695 14.4331 6.86193C14.5503 6.7369 14.7092 6.66667 14.875 6.66667H16.75V4.66667C16.75 4.48986 16.8158 4.32029 16.9331 4.19526C17.0503 4.07024 17.2092 4 17.375 4Z"
            fill="black" /></svg>