<svg width="25" height="20" viewBox="0 0 25 20" fill="none" xmlns="http://www.w3.org/2000/svg">
<path fill-rule="evenodd" clip-rule="evenodd" d="M13.0241 0.345015L12.4335 0L11.8429 0.345015L0.575556 6.95004C0.308876 7.10666 0.115339 7.36281 0.0375206 7.66214C-0.0402977 7.96146 0.00397708 8.27944 0.160605 8.54612C0.317233 8.8128 0.573384 9.00634 0.872708 9.08415C1.17203 9.16197 1.49001 9.1177 1.75669 8.96107L3.10878 8.16847V20H21.7582V8.16847L23.1103 8.96107C23.2424 9.03862 23.3884 9.08941 23.5401 9.11053C23.6918 9.13165 23.8461 9.12269 23.9943 9.08415C24.1425 9.04562 24.2817 8.97828 24.4039 8.88596C24.5261 8.79364 24.6289 8.67817 24.7064 8.54612C24.784 8.41407 24.8348 8.26804 24.8559 8.11637C24.877 7.9647 24.868 7.81035 24.8295 7.66214C24.791 7.51393 24.7236 7.37476 24.6313 7.25257C24.539 7.13039 24.4235 7.02759 24.2915 6.95004L13.0241 0.345015ZM19.4271 6.80084L12.4335 2.70262L5.43996 6.80084V17.6688H9.32526V10.6753H15.5418V17.6688H19.4271V6.80084ZM13.2106 13.0064V17.6688H11.6564V13.0064H13.2106Z" fill="black" fill-opacity="0.7"/>
</svg>
