<svg width="18" height="21" viewBox="0 0 18 21" fill="none" xmlns="http://www.w3.org/2000/svg">
<path d="M2 20.5004H16C16.5304 20.5004 17.0391 20.2897 17.4142 19.9146C17.7893 19.5395 18 19.0308 18 18.5004V9.5004C18.0008 9.36879 17.9755 9.23833 17.9258 9.11649C17.876 8.99465 17.8027 8.88384 17.71 8.7904L9.71 0.790396C9.52264 0.604145 9.26919 0.499603 9.005 0.499603C8.74081 0.499603 8.48736 0.604145 8.3 0.790396L0.3 8.7904C0.205512 8.88301 0.130342 8.99345 0.0788453 9.11533C0.0273487 9.23721 0.00054925 9.36809 0 9.5004V18.5004C0 19.0308 0.210714 19.5395 0.585786 19.9146C0.960859 20.2897 1.46957 20.5004 2 20.5004ZM7 18.5004V13.5004H11V18.5004H7ZM2 9.9104L9 2.9104L16 9.9104V18.5004H13V13.5004C13 12.97 12.7893 12.4613 12.4142 12.0862C12.0391 11.7111 11.5304 11.5004 11 11.5004H7C6.46957 11.5004 5.96086 11.7111 5.58579 12.0862C5.21071 12.4613 5 12.97 5 13.5004V18.5004H2V9.9104Z" fill="black" fill-opacity="0.7"/>
</svg>
