<svg width="20" height="19" viewBox="0 0 20 19" fill="none" xmlns="http://www.w3.org/2000/svg">
<path d="M9.99355 7.62785e-05C9.74897 0.000224534 9.51332 0.0920689 9.33315 0.257476L0.295151 8.22608C0.292322 8.22858 0.289521 8.23111 0.286751 8.23368C-0.00404868 8.50268 -0.0716487 8.94168 0.0747513 9.26208C0.221151 9.58268 0.564351 9.81188 0.953551 9.81208H3.28395V17.5137C3.28395 18.0395 3.74155 18.4317 4.24335 18.4319H15.7562C16.258 18.4319 16.7156 18.0395 16.7156 17.5139V9.81208H19.0462C19.4354 9.81208 19.7786 9.58288 19.925 9.26228C20.0714 8.94188 20.0038 8.50268 19.713 8.23368C19.7102 8.23111 19.7074 8.22858 19.7046 8.22608L10.6668 0.257476C10.4833 0.0890348 10.2426 -0.00303332 9.99355 7.62785e-05ZM9.99995 4.85748C12.12 4.85748 13.8566 6.58948 13.8566 8.70328C13.8566 9.21228 13.7552 9.69908 13.5726 10.1449C13.5333 10.2625 13.484 10.3765 13.4254 10.4857L10.4674 15.5197C10.155 15.9431 9.90535 16.0363 9.52955 15.5457L6.84755 10.9095C6.38954 10.265 6.14343 9.49394 6.14335 8.70328C6.14335 6.58928 7.87995 4.85728 9.99995 4.85728M9.99995 6.65928C8.85835 6.65928 7.95035 7.56468 7.95035 8.70308C7.95035 9.84128 8.85835 10.7467 9.99995 10.7467C11.1416 10.7467 12.0496 9.84128 12.0496 8.70308C12.0496 7.56468 11.1416 6.65928 9.99995 6.65928Z" fill="#FFD233"/>
</svg>
