<svg width="20" height="20" viewBox="0 0 20 20" fill="none" xmlns="http://www.w3.org/2000/svg">
    <path fill-rule="evenodd" clip-rule="evenodd"
        d="M10 10C12.4556 10 14.4444 8.01111 14.4444 5.55556C14.4444 3.1 12.4556 1.11111 10 1.11111C7.54444 1.11111 5.55556 3.1 5.55556 5.55556C5.55556 8.01111 7.54444 10 10 10ZM15.5556 5.55556C15.5556 8.625 13.0694 11.1111 10 11.1111C6.93056 11.1111 4.44444 8.625 4.44444 5.55556C4.44444 2.48611 6.93056 0 10 0C13.0694 0 15.5556 2.48611 15.5556 5.55556ZM1.79056 15.6733C1.23333 16.1233 1.11111 16.4606 1.11111 16.6667V18.8889H18.8889V16.6667C18.8889 16.4611 18.7667 16.1228 18.2089 15.6733C17.6644 15.2339 16.8522 14.815 15.8678 14.4528C13.9 13.7289 11.5294 13.3333 10 13.3333C8.47056 13.3333 6.1 13.7289 4.13222 14.4528C3.14778 14.815 2.33556 15.2339 1.79056 15.6733ZM10 12.2222C6.66278 12.2222 0 13.9083 0 16.6667V20H20V16.6667C20 13.9083 13.3378 12.2222 10 12.2222Z"
        fill="black" />
</svg>