<svg width="84" height="50" viewBox="0 0 84 50" fill="none" xmlns="http://www.w3.org/2000/svg">
<rect x="1.79578" y="1" width="80.5" height="48" rx="24" stroke="black" stroke-opacity="0.5" stroke-width="2"/>
<path fill-rule="evenodd" clip-rule="evenodd" d="M25.7958 10C17.5113 10 10.7958 16.7155 10.7958 25C10.7958 33.2845 17.5113 40 25.7958 40C34.0803 40 40.7958 33.2845 40.7958 25C40.7958 16.7155 34.0803 10 25.7958 10ZM20.5458 21.25C20.5458 20.5606 20.6816 19.8779 20.9454 19.2409C21.2092 18.604 21.596 18.0252 22.0835 17.5377C22.571 17.0502 23.1497 16.6635 23.7867 16.3996C24.4236 16.1358 25.1063 16 25.7958 16C26.4852 16 27.1679 16.1358 27.8049 16.3996C28.4418 16.6635 29.0206 17.0502 29.5081 17.5377C29.9956 18.0252 30.3823 18.604 30.6461 19.2409C30.91 19.8779 31.0458 20.5606 31.0458 21.25C31.0458 22.6424 30.4927 23.9777 29.5081 24.9623C28.5235 25.9469 27.1882 26.5 25.7958 26.5C24.4034 26.5 23.068 25.9469 22.0835 24.9623C21.0989 23.9777 20.5458 22.6424 20.5458 21.25ZM35.1828 32.476C34.0599 33.8884 32.6325 35.0289 31.007 35.8123C29.3816 36.5957 27.6001 37.0017 25.7958 37C23.9914 37.0017 22.21 36.5957 20.5845 35.8123C18.9591 35.0289 17.5316 33.8884 16.4088 32.476C18.8403 30.7315 22.1583 29.5 25.7958 29.5C29.4333 29.5 32.7513 30.7315 35.1828 32.476Z" fill="black"/>
<path d="M50.7958 17.5H73.2958" stroke="black" stroke-width="3" stroke-linecap="round"/>
<path d="M50.7958 25H73.2958" stroke="black" stroke-width="3" stroke-linecap="round"/>
<path d="M50.7958 32.5H73.2958" stroke="black" stroke-width="3" stroke-linecap="round"/>
</svg>
