<svg width="34" height="23" viewBox="0 0 34 23" fill="none" xmlns="http://www.w3.org/2000/svg">
<path d="M1 9.16666V20.5C1 21.0523 1.44772 21.5 2 21.5H16C16.5523 21.5 17 21.0523 17 20.5V9.16666C17 8.61437 16.5523 8.16666 16 8.16666H2C1.44772 8.16666 1 8.61437 1 9.16666Z" stroke="black" stroke-opacity="0.7" stroke-width="2"/>
<path d="M9 2.5V13.8333C9 14.3856 9.44772 14.8333 10 14.8333H24C24.5523 14.8333 25 14.3856 25 13.8333V2.5C25 1.94772 24.5523 1.5 24 1.5H10C9.44772 1.5 9 1.94771 9 2.5Z" stroke="black" stroke-opacity="0.7" stroke-width="2"/>
<path d="M17 9.16666V20.5C17 21.0523 17.4477 21.5 18 21.5H32C32.5523 21.5 33 21.0523 33 20.5V9.16666C33 8.61437 32.5523 8.16666 32 8.16666H18C17.4477 8.16666 17 8.61437 17 9.16666Z" stroke="black" stroke-opacity="0.7" stroke-width="2"/>
</svg>
