<svg width="30" height="20" viewBox="0 0 30 20" fill="none" xmlns="http://www.w3.org/2000/svg">
<path d="M16 18.7145C16 18.9908 15.9064 19.2557 15.7397 19.451C15.573 19.6464 15.3469 19.7561 15.1111 19.7561H0.888889C0.653141 19.7561 0.427049 19.6464 0.26035 19.451C0.0936507 19.2557 2.13965e-07 18.9908 2.13965e-07 18.7145V7.76778C-9.37633e-05 7.60906 0.0307708 7.45241 0.0902365 7.30981C0.149702 7.1672 0.236196 7.0424 0.343111 6.94495L7.45422 0.463346C7.61026 0.321117 7.80231 0.243896 8 0.243896C8.19769 0.243896 8.38974 0.321117 8.54578 0.463346L15.6569 6.94495C15.7638 7.0424 15.8503 7.1672 15.9098 7.30981C15.9692 7.45241 16.0001 7.60906 16 7.76778V18.7145ZM14.2222 17.673V8.27606L8 2.60583L1.77778 8.27606V17.673H14.2222Z" fill="black" fill-opacity="0.7"/>
<path d="M30 18.7145C30 18.9908 29.9064 19.2557 29.7397 19.451C29.573 19.6464 29.3469 19.7561 29.1111 19.7561H14.8889C14.6531 19.7561 14.427 19.6464 14.2603 19.451C14.0937 19.2557 14 18.9908 14 18.7145V7.76778C13.9999 7.60906 14.0308 7.45241 14.0902 7.30981C14.1497 7.1672 14.2362 7.0424 14.3431 6.94495L21.4542 0.463346C21.6103 0.321117 21.8023 0.243896 22 0.243896C22.1977 0.243896 22.3897 0.321117 22.5458 0.463346L29.6569 6.94495C29.7638 7.0424 29.8503 7.1672 29.9098 7.30981C29.9692 7.45241 30.0001 7.60906 30 7.76778V18.7145ZM28.2222 17.673V8.27606L22 2.60583L15.7778 8.27606V17.673H28.2222Z" fill="black" fill-opacity="0.7"/>
</svg>
