<svg width="28" height="20" viewBox="0 0 28 20" fill="none" xmlns="http://www.w3.org/2000/svg">
<path d="M14.6479 0.0986096C14.5381 0.0340452 14.4131 0 14.2857 0C14.1584 0 14.0333 0.0340452 13.9236 0.0986096L1.16504 7.60358L1.88932 8.83501L14.2857 1.54289L26.6821 8.83572L27.4064 7.6043L22.8571 4.92859V1.42861C22.8571 1.23917 22.7819 1.05748 22.6479 0.923531C22.5139 0.789577 22.3323 0.714322 22.1428 0.714322H20C19.8105 0.714322 19.6289 0.789577 19.4949 0.923531C19.3609 1.05748 19.2857 1.23917 19.2857 1.42861V2.82646L14.6479 0.0986096ZM7.14288 10.7143H15V15H7.14288V10.7143Z" fill="black" fill-opacity="0.7"/>
<path fill-rule="evenodd" clip-rule="evenodd" d="M14.2857 2.85718L4.2857 8.57144V18.5714H0.714283C0.524844 18.5714 0.343163 18.6467 0.209209 18.7806C0.0752548 18.9146 0 19.0963 0 19.2857C0 19.4751 0.0752548 19.6568 0.209209 19.7908C0.343163 19.9247 0.524844 20 0.714283 20H26.4285C26.6179 20 26.7996 19.9247 26.9336 19.7908C27.0675 19.6568 27.1428 19.4751 27.1428 19.2857C27.1428 19.0963 27.0675 18.9146 26.9336 18.7806C26.7996 18.6467 26.6179 18.5714 26.4285 18.5714H24.2856V8.57144L14.2857 2.85718ZM14.2857 4.50217L5.71427 9.40073V18.5714H17.1428V10.7143H21.4285V18.5714H22.8571V9.40001L14.2857 4.50217Z" fill="black" fill-opacity="0.7"/>
</svg>
