<svg width="35" height="22" viewBox="0 0 35 22" fill="none" xmlns="http://www.w3.org/2000/svg">
<path d="M1 8.41193V19.6342C1 20.1864 1.44772 20.6342 2 20.6342H8.77778M1 8.41193L8.12297 1.28896C8.49246 0.919469 9.08413 0.896746 9.48087 1.23681L12.6667 3.96749M1 8.41193H9.05556M33.2222 8.41193V19.6342C33.2222 20.1864 32.7745 20.6342 32.2222 20.6342H25.1667H17.1111M33.2222 8.41193L29.0707 4.26038C28.8831 4.07285 28.6288 3.96749 28.3636 3.96749H20.7222M33.2222 8.41193H25.1667H17.1111M12.6667 3.96749H20.7222M12.6667 3.96749L9.05556 8.41193M20.7222 3.96749L17.1111 8.41193M17.1111 8.41193H9.05556M17.1111 8.41193V20.6342M9.05556 8.41193L8.77778 20.6342M8.77778 20.6342H17.1111" stroke="black" stroke-opacity="0.7" stroke-width="2"/>
</svg>
