<svg width="38" height="22" viewBox="0 0 38 22" fill="none" xmlns="http://www.w3.org/2000/svg">
<path d="M1 8.41193V19.6342C1 20.1864 1.44772 20.6342 2 20.6342H8M1 8.41193L7.3119 1.39871C7.68875 0.979991 8.33692 0.955034 8.74485 1.34354L11.5 3.96749M1 8.41193H8.25M11.5 3.96749H18.75M11.5 3.96749L8.25 8.41193M26 3.96749H18.75M26 3.96749L22.75 8.41193M26 3.96749H33.0146C33.3211 3.96749 33.6107 4.10802 33.8003 4.3488L37 8.41193M18.75 3.96749L15.5 8.41193M15.5 8.41193H8.25M15.5 8.41193V20.6342M15.5 8.41193H22.75M8.25 8.41193L8 20.6342M8 20.6342H15.5M15.5 20.6342H22.75M22.75 8.41193V20.6342M22.75 8.41193H37M22.75 20.6342H30H36C36.5523 20.6342 37 20.1864 37 19.6342V8.41193" stroke="black" stroke-opacity="0.7" stroke-width="2"/>
</svg>
